<svg xmlns="http://www.w3.org/2000/svg" viewBox="0 0 512 512">
  <defs>
    <radialGradient id="glow" cx="50%" cy="62%" r="42%">
      <stop offset="0" stop-color="#FFF6B0" stop-opacity="1"/>
      <stop offset="0.45" stop-color="#F6D35A" stop-opacity="0.55"/>
      <stop offset="1" stop-color="#F6D35A" stop-opacity="0"/>
    </radialGradient>
    <linearGradient id="bg" x1="0" y1="0" x2="0" y2="1">
      <stop offset="0" stop-color="#0E806A"/>
      <stop offset="1" stop-color="#06362F"/>
    </linearGradient>
  </defs>
  <rect width="512" height="512" fill="url(#bg)"/>
  <!-- valle -->
  <path d="M0 400 C 90 330, 170 360, 256 320 C 342 280, 420 330, 512 290 L512 512 L0 512 Z" fill="#0B5B4F"/>
  <path d="M0 450 C 120 400, 220 430, 300 400 C 380 370, 450 400, 512 380 L512 512 L0 512 Z" fill="#06362F"/>
  <!-- luces lejanas -->
  <circle cx="96" cy="150" r="7" fill="#F6D35A" opacity=".7"/>
  <circle cx="420" cy="118" r="6" fill="#F6D35A" opacity=".6"/>
  <circle cx="400" cy="230" r="5" fill="#F6D35A" opacity=".5"/>
  <circle cx="130" cy="262" r="5" fill="#F6D35A" opacity=".5"/>
  <!-- luciérnaga -->
  <circle cx="256" cy="300" r="150" fill="url(#glow)"/>
  <ellipse cx="200" cy="200" rx="70" ry="34" transform="rotate(-35 200 200)" fill="#D3EFE1" opacity=".85"/>
  <ellipse cx="312" cy="200" rx="70" ry="34" transform="rotate(35 312 200)" fill="#D3EFE1" opacity=".85"/>
  <ellipse cx="256" cy="232" rx="34" ry="44" fill="#3D210A"/>
  <ellipse cx="256" cy="312" rx="42" ry="56" fill="#FFF3A0"/>
  <ellipse cx="256" cy="312" rx="26" ry="38" fill="#FFFFFF" opacity=".75"/>
  <circle cx="256" cy="180" r="24" fill="#3D210A"/>
  <path d="M244 160 C 230 130, 212 120, 196 122" stroke="#3D210A" stroke-width="8" fill="none" stroke-linecap="round"/>
  <path d="M268 160 C 282 130, 300 120, 316 122" stroke="#3D210A" stroke-width="8" fill="none" stroke-linecap="round"/>
</svg>
